<svg xmlns="http://www.w3.org/2000/svg" width="1280" height="800" viewBox="0 0 1280 800"><path opacity=".5" fill="#FF0" d="M557 328.462c0 11.374-9.46 21.538-20.832 21.538H415.76c-11.37 0-20.76-10.164-20.76-21.538V-26.462C395-37.836 404.39-48 415.76-48H536.17C547.538-48 557-37.836 557-26.462v354.924zM778 328.462c0 11.374-8.81 21.538-20.183 21.538H637.41c-11.37 0-20.41-10.164-20.41-21.538V-26.462C617-37.836 626.04-48 637.41-48h120.407C769.19-48 778-37.836 778-26.462v354.924zM1209 328.462c0 11.374-8.39 21.538-19.762 21.538H1068.83c-11.37 0-20.83-10.164-20.83-21.538V-26.462c0-11.374 9.46-21.538 20.83-21.538h120.408c11.37 0 19.762 10.164 19.762 21.538v354.924zM1422 328.462c0 11.374-9.31 21.538-20.683 21.538H1280.91c-11.37 0-20.91-10.164-20.91-21.538V-26.462c0-11.374 9.54-21.538 20.91-21.538h120.407C1412.69-48 1422-37.836 1422-26.462v354.924zM996 328.462c0 11.374-8.79 21.538-20.162 21.538H855.43c-11.37 0-21.43-10.164-21.43-21.538V-26.462C834-37.836 844.06-48 855.43-48H975.84C987.21-48 996-37.836 996-26.462v354.924z"/><path opacity=".5" fill="#0FF" d="M553 1175.912c0 11.646-9.416 21.088-21.032 21.088H412.032c-11.616 0-21.032-9.44-21.032-21.088V821.088c0-11.646 9.417-21.088 21.032-21.088h119.936c11.616 0 21.032 9.44 21.032 21.088v354.824zM777 778.912c0 11.646-9.17 21.088-20.482 21.088H635.482C624.17 800 615 790.56 615 778.912V424.088c0-11.646 9.17-21.088 20.482-21.088h121.035C767.83 403 777 412.44 777 424.088v354.824zM1421 778.912c0 11.646-9.17 21.088-20.482 21.088h-121.035c-11.312 0-20.482-9.44-20.482-21.088V424.088c0-11.646 9.17-21.088 20.483-21.088h121.035c11.312 0 20.482 9.44 20.482 21.088v354.824z"/><g fill="#F0F"><path opacity=".5" d="M988 1175.408c0 11.373-9.22 20.592-20.59 20.592H846.59c-11.37 0-20.59-9.22-20.59-20.592V820.592C826 809.22 835.22 800 846.59 800h120.82c11.37 0 20.59 9.22 20.59 20.592v354.816zM1207 1175.408c0 11.373-9.22 20.592-20.59 20.592h-120.82c-11.37 0-20.59-9.22-20.59-20.592V820.592c0-11.373 9.22-20.592 20.59-20.592h120.82c11.37 0 20.59 9.22 20.59 20.592v354.816z"/></g></svg>