<svg xmlns="http://www.w3.org/2000/svg" width="1280" height="800" viewBox="0 0 1280 800"><path opacity=".5" fill="#0FF" d="M101 614.408C101 625.78 91.78 635 80.41 635H-40.41C-51.78 635-61 625.78-61 614.408V259.592C-61 248.22-51.78 239-40.41 239H80.41c11.37 0 20.59 9.22 20.59 20.592v354.816zM320 614.408C320 625.78 310.78 635 299.41 635H178.59c-11.37 0-20.59-9.22-20.59-20.592V259.592C158 248.22 167.22 239 178.59 239h120.82c11.37 0 20.59 9.22 20.59 20.592v354.816zM532 608.408C532 619.78 522.78 629 511.41 629H390.59c-11.37 0-20.59-9.22-20.59-20.592V253.592C370 242.22 379.22 233 390.59 233h120.82c11.37 0 20.59 9.22 20.59 20.592v354.816zM751 608.408C751 619.78 741.78 629 730.41 629H609.59c-11.37 0-20.59-9.22-20.59-20.592V253.592C589 242.22 598.22 233 609.59 233h120.82c11.37 0 20.59 9.22 20.59 20.592v354.816z"/><path opacity=".5" fill="#F0F" d="M1176.962 676c11.374 0 21.038 8.96 21.038 20.332V816.74c0 11.37-9.664 21.26-21.038 21.26H822.038C810.664 838 800 828.11 800 816.74V696.33c0-11.37 10.664-20.332 22.038-20.332h354.924z"/><path opacity=".5" fill="#FF0" d="M1176.962 455c11.374 0 21.038 8.31 21.038 19.683V595.09c0 11.37-9.664 20.91-21.038 20.91H822.038C810.664 616 800 606.46 800 595.09V474.682C800 463.31 810.664 455 822.038 455h354.924z"/><path opacity=".5" fill="#F0F" d="M1176.962 24c11.374 0 21.038 7.89 21.038 19.262V163.67c0 11.37-9.664 21.33-21.038 21.33H822.038C810.664 185 800 175.04 800 163.67V43.26C800 31.892 810.664 24 822.038 24h354.924zM1176.962-189c11.374 0 21.038 8.81 21.038 20.183V-48.41c0 11.37-9.664 21.41-21.038 21.41H822.038C810.664-27 800-37.04 800-48.41v-120.407C800-180.19 810.664-189 822.038-189h354.924z"/><path opacity=".5" fill="#FF0" d="M1176.962 237c11.374 0 21.038 8.29 21.038 19.662V377.07c0 11.37-9.664 21.93-21.038 21.93H822.038C810.664 399 800 388.44 800 377.07V256.66C800 245.29 810.664 237 822.038 237h354.924z"/><path opacity=".5" fill="#F0F" d="M1178.962-401c11.374 0 21.038 8.96 21.038 20.332v120.407c0 11.37-9.664 21.26-21.038 21.26H824.038C812.664-239 802-248.89 802-260.26V-380.67c0-11.37 10.664-20.332 22.038-20.332h354.924zM1176.962 896c11.374 0 21.038 8.96 21.038 20.332v120.407c0 11.37-9.664 21.26-21.038 21.26H822.038c-11.374 0-22.038-9.89-22.038-21.26V916.33c0-11.37 10.664-20.332 22.038-20.332h354.924z"/></svg>